# xmcd
#
# Track frame offsets: 
#        150
#        17072
#        37900
#        60622
#        83002
#        98707
#        113645
#        128107
#        146557
#        163952
#        185237
#        202977
#        222460
#        240912
#
# Disc length: 3412 seconds
#
# Revision: 3
# Processed by: cddbd v1.5.2PL0 Copyright (c) Steve Scherf et al.
# Submitted via: ExactAudioCopy v1.0b3
#
DISCID=bd0d520e
DTITLE=劉歡 - 記住劉歡 CD1
DYEAR=2000
DGENRE=CPop
TTITLE0=少年壯志不言愁
TTITLE1=My Way
TTITLE2=彎彎的月亮
TTITLE3=亞洲雄風
TTITLE4=心中的太陽
TTITLE5=不能這樣活
TTITLE6=昨天下了一夜雨
TTITLE7=花落花開
TTITLE8=人生無悔
TTITLE9=Good Luck Beijing
TTITLE10=糊塗的愛
TTITLE11=你是飄啊飄著的雲
TTITLE12=人生第一次
TTITLE13=這一拜
EXTD=
EXTT0=
EXTT1=
EXTT2=
EXTT3=
EXTT4=
EXTT5=
EXTT6=
EXTT7=
EXTT8=
EXTT9=
EXTT10=
EXTT11=
EXTT12=
EXTT13=
PLAYORDER=
